<mxfile host="app.diagrams.net" modified="2024-02-12T04:44:51.686Z" agent="Mozilla/5.0 (Windows NT 10.0; Win64; x64) AppleWebKit/537.36 (KHTML, like Gecko) Chrome/121.0.0.0 Safari/537.36" version="23.1.2" etag="gf0bRjYx9sMj8VRsK_GD" type="github">
  <diagram name="Halaman-1" id="sGjm4Od8pGnF-seUHSu9">
    <mxGraphModel>
      <root>
        <mxCell id="0" />
        <mxCell id="1" parent="0" />
      </root>
    </mxGraphModel>
  </diagram>
</mxfile>
